<?xml version="1.0" encoding="UTF-8" standalone="no"?>
<!DOCTYPE svg PUBLIC "-//W3C//DTD SVG 1.1//EN"
 "http://www.w3.org/Graphics/SVG/1.1/DTD/svg11.dtd">
<!-- Generated by graphviz version 2.43.0 (0)
 -->
<!-- Title: %3 Pages: 1 -->
<svg width="462pt" height="544pt"
 viewBox="0.00 0.00 461.69 544.00" xmlns="http://www.w3.org/2000/svg" xmlns:xlink="http://www.w3.org/1999/xlink">
<g id="graph0" class="graph" transform="scale(1 1) rotate(0) translate(4 540)">
<title>%3</title>
<polygon fill="white" stroke="transparent" points="-4,4 -4,-540 457.69,-540 457.69,4 -4,4"/>
<!-- STAGE_1 -->
<g id="node1" class="node">
<title>STAGE_1</title>
<g id="a_node1"><a xlink:title="Phase B in Han&#39;s slides (block = [10, 20, 5], p_sum = 0.8, p_ratio = [1:0])">
<ellipse fill="red" stroke="black" cx="233" cy="-518" rx="53.09" ry="18"/>
<text text-anchor="middle" x="233" y="-514.3" font-family="Times,serif" font-size="14.00">STAGE_1</text>
</a>
</g>
</g>
<!-- STAGE_2 -->
<g id="node2" class="node">
<title>STAGE_2</title>
<g id="a_node2"><a xlink:title="Phase C in Han&#39;s slides (block = [10, 40, 10], p_sum = 0.6, p_ratio = [8:1])">
<ellipse fill="orange" stroke="black" cx="233" cy="-393" rx="53.09" ry="18"/>
<text text-anchor="middle" x="233" y="-389.3" font-family="Times,serif" font-size="14.00">STAGE_2</text>
</a>
</g>
</g>
<!-- STAGE_1&#45;&gt;STAGE_2 -->
<g id="edge1" class="edge">
<title>STAGE_1&#45;&gt;STAGE_2</title>
<g id="a_edge1"><a xlink:title="PROGRESS">
<path fill="none" stroke="black" stroke-width="2" d="M227.32,-499.71C224.18,-489.22 220.59,-475.49 219,-463 217.19,-448.84 219.95,-433.24 223.48,-420.46"/>
<polygon fill="black" stroke="black" stroke-width="2" points="226.83,-421.48 226.41,-410.9 220.13,-419.44 226.83,-421.48"/>
</a>
</g>
<text text-anchor="middle" x="233" y="-451.8" font-family="Times,serif" font-size="14.00"> &#160;&#160;&#160;&#160;&#160;</text>
<g id="a_edge1&#45;headlabel"><a xlink:title="metrics.finished_trials[&#45;1] &gt;= 200&#10;and&#10;metrics.foraging_efficiency[&#45;1] &gt;= 0.6&#10;">
<text text-anchor="middle" x="128.91" y="-429.7" font-family="Times,serif" font-size="14.00">Finished trials &gt;= 200 and</text>
<text text-anchor="middle" x="128.91" y="-414.7" font-family="Times,serif" font-size="14.00"> efficiency &gt;= 0.6</text>
</a>
</g>
</g>
<!-- STAGE_2&#45;&gt;STAGE_1 -->
<g id="edge3" class="edge">
<title>STAGE_2&#45;&gt;STAGE_1</title>
<g id="a_edge3"><a xlink:title="ROLLBACK">
<path fill="none" stroke="grey" stroke-width="2" stroke-dasharray="5,2" d="M239.59,-410.9C244.25,-424.8 249.29,-445.05 247,-463 245.87,-471.88 243.73,-481.39 241.46,-489.91"/>
<polygon fill="grey" stroke="grey" stroke-width="2" points="238.04,-489.13 238.68,-499.71 244.77,-491.04 238.04,-489.13"/>
</a>
</g>
<g id="a_edge3&#45;taillabel"><a xlink:title="metrics.finished_trials[&#45;1] &lt; 200&#10;or&#10;metrics.foraging_efficiency[&#45;1] &lt; 0.55&#10;">
<text text-anchor="middle" x="325.59" y="-429.7" font-family="Times,serif" font-size="14.00" fill="grey">Finished trials &lt; 200 or</text>
<text text-anchor="middle" x="325.59" y="-414.7" font-family="Times,serif" font-size="14.00" fill="grey"> efficiency &lt; 0.55</text>
</a>
</g>
</g>
<!-- STAGE_3 -->
<g id="node3" class="node">
<title>STAGE_3</title>
<g id="a_node3"><a xlink:title="Phase D in Han&#39;s slides (block = [10, 40, 10], p_sum = 0.45, p_ratio = [8:1])">
<ellipse fill="yellow" stroke="black" cx="233" cy="-268" rx="53.09" ry="18"/>
<text text-anchor="middle" x="233" y="-264.3" font-family="Times,serif" font-size="14.00">STAGE_3</text>
</a>
</g>
</g>
<!-- STAGE_2&#45;&gt;STAGE_3 -->
<g id="edge2" class="edge">
<title>STAGE_2&#45;&gt;STAGE_3</title>
<g id="a_edge2"><a xlink:title="PROGRESS">
<path fill="none" stroke="black" stroke-width="2" d="M227.32,-374.71C224.18,-364.22 220.59,-350.49 219,-338 217.19,-323.84 219.95,-308.24 223.48,-295.46"/>
<polygon fill="black" stroke="black" stroke-width="2" points="226.83,-296.48 226.41,-285.9 220.13,-294.44 226.83,-296.48"/>
</a>
</g>
<text text-anchor="middle" x="233" y="-326.8" font-family="Times,serif" font-size="14.00"> &#160;&#160;&#160;&#160;&#160;</text>
<g id="a_edge2&#45;headlabel"><a xlink:title="metrics.finished_trials[&#45;1] &gt;= 300&#10;and&#10;metrics.foraging_efficiency[&#45;1] &gt;= 0.65&#10;">
<text text-anchor="middle" x="128.91" y="-304.7" font-family="Times,serif" font-size="14.00">Finished trials &gt;= 300 and</text>
<text text-anchor="middle" x="128.91" y="-289.7" font-family="Times,serif" font-size="14.00"> efficiency &gt; 0.65</text>
</a>
</g>
</g>
<!-- STAGE_3&#45;&gt;STAGE_2 -->
<g id="edge5" class="edge">
<title>STAGE_3&#45;&gt;STAGE_2</title>
<g id="a_edge5"><a xlink:title="ROLLBACK">
<path fill="none" stroke="grey" stroke-width="2" stroke-dasharray="5,2" d="M239.59,-285.9C244.25,-299.8 249.29,-320.05 247,-338 245.87,-346.88 243.73,-356.39 241.46,-364.91"/>
<polygon fill="grey" stroke="grey" stroke-width="2" points="238.04,-364.13 238.68,-374.71 244.77,-366.04 238.04,-364.13"/>
</a>
</g>
<g id="a_edge5&#45;taillabel"><a xlink:title="metrics.finished_trials[&#45;1] &lt; 200&#10;or&#10;metrics.foraging_efficiency[&#45;1] &lt; 0.6&#10;">
<text text-anchor="middle" x="325.59" y="-304.7" font-family="Times,serif" font-size="14.00" fill="grey">Finished trials &lt; 200 or</text>
<text text-anchor="middle" x="325.59" y="-289.7" font-family="Times,serif" font-size="14.00" fill="grey"> efficiency &lt; 0.6</text>
</a>
</g>
</g>
<!-- STAGE_FINAL -->
<g id="node4" class="node">
<title>STAGE_FINAL</title>
<g id="a_node4"><a xlink:title="Phase E in Han&#39;s slides (full task: block = [20, 60, 20], p_sum = 0.45, p_ratio = [8:1], [6:1], [3:1], [1:1])">
<ellipse fill="lightgreen" stroke="black" cx="233" cy="-143" rx="77.19" ry="18"/>
<text text-anchor="middle" x="233" y="-139.3" font-family="Times,serif" font-size="14.00">STAGE_FINAL</text>
</a>
</g>
</g>
<!-- STAGE_3&#45;&gt;STAGE_FINAL -->
<g id="edge4" class="edge">
<title>STAGE_3&#45;&gt;STAGE_FINAL</title>
<g id="a_edge4"><a xlink:title="PROGRESS">
<path fill="none" stroke="black" stroke-width="2" d="M227.32,-249.71C224.18,-239.22 220.59,-225.49 219,-213 217.22,-199.08 219.86,-183.76 223.3,-171.1"/>
<polygon fill="black" stroke="black" stroke-width="2" points="226.76,-171.77 226.31,-161.18 220.06,-169.74 226.76,-171.77"/>
</a>
</g>
<text text-anchor="middle" x="233" y="-201.8" font-family="Times,serif" font-size="14.00"> &#160;&#160;&#160;&#160;&#160;</text>
<g id="a_edge4&#45;headlabel"><a xlink:title="metrics.finished_trials[&#45;1] &gt;= 400&#10;and&#10;metrics.foraging_efficiency[&#45;1] &gt;= 0.7&#10;">
<text text-anchor="middle" x="128.81" y="-179.98" font-family="Times,serif" font-size="14.00">Finished trials &gt;= 400 and</text>
<text text-anchor="middle" x="128.81" y="-164.98" font-family="Times,serif" font-size="14.00"> efficiency &gt;= 0.7</text>
</a>
</g>
</g>
<!-- STAGE_FINAL&#45;&gt;STAGE_3 -->
<g id="edge7" class="edge">
<title>STAGE_FINAL&#45;&gt;STAGE_3</title>
<g id="a_edge7"><a xlink:title="ROLLBACK">
<path fill="none" stroke="grey" stroke-width="2" stroke-dasharray="5,2" d="M239.69,-161.18C244.32,-175.07 249.27,-195.18 247,-213 245.87,-221.88 243.73,-231.39 241.46,-239.91"/>
<polygon fill="grey" stroke="grey" stroke-width="2" points="238.04,-239.13 238.68,-249.71 244.77,-241.04 238.04,-239.13"/>
</a>
</g>
<g id="a_edge7&#45;taillabel"><a xlink:title="np.mean(metrics.finished_trials[&#45;2:]) &lt; 400&#10;or&#10;np.mean(metrics.foraging_efficiency[&#45;2:]) &lt; 0.6&#10;">
<text text-anchor="middle" x="346.69" y="-194.98" font-family="Times,serif" font-size="14.00" fill="grey">For recent 2 sessions,</text>
<text text-anchor="middle" x="346.69" y="-179.98" font-family="Times,serif" font-size="14.00" fill="grey"> mean finished trials &lt; 400 or</text>
<text text-anchor="middle" x="346.69" y="-164.98" font-family="Times,serif" font-size="14.00" fill="grey"> efficiency &lt; 0.6</text>
</a>
</g>
</g>
<!-- GRADUATED -->
<g id="node5" class="node">
<title>GRADUATED</title>
<polygon fill="green" stroke="black" points="288,-36 178,-36 178,0 288,0 288,-36"/>
<text text-anchor="middle" x="233" y="-14.3" font-family="Times,serif" font-size="14.00">GRADUATED</text>
</g>
<!-- STAGE_FINAL&#45;&gt;GRADUATED -->
<g id="edge6" class="edge">
<title>STAGE_FINAL&#45;&gt;GRADUATED</title>
<g id="a_edge6"><a xlink:title="PROGRESS">
<path fill="none" stroke="black" stroke-width="2" d="M233,-124.9C233,-104.63 233,-70.6 233,-46.59"/>
<polygon fill="black" stroke="black" stroke-width="2" points="236.5,-46.35 233,-36.35 229.5,-46.35 236.5,-46.35"/>
</a>
</g>
<text text-anchor="middle" x="247" y="-76.8" font-family="Times,serif" font-size="14.00"> &#160;&#160;&#160;&#160;&#160;</text>
<g id="a_edge6&#45;headlabel"><a xlink:title="metrics.session_total &gt;= 10 &#10;and&#10;metrics.session_at_current_stage &gt;= 5&#10;and&#10;np.mean(metrics.finished_trials[&#45;5:]) &gt;= 500&#10;and&#10;np.mean(metrics.foraging_efficiency[&#45;5:]) &gt;= 0.7&#10;">
<text text-anchor="middle" x="116.5" y="-100.15" font-family="Times,serif" font-size="14.00">For recent 5 sessions,</text>
<text text-anchor="middle" x="116.5" y="-85.15" font-family="Times,serif" font-size="14.00">mean finished trials &gt;= 500 and</text>
<text text-anchor="middle" x="116.5" y="-70.15" font-family="Times,serif" font-size="14.00"> mean efficiency &gt;= 0.7 and</text>
<text text-anchor="middle" x="116.5" y="-55.15" font-family="Times,serif" font-size="14.00"> total sessions &gt;= 10 and</text>
<text text-anchor="middle" x="116.5" y="-40.15" font-family="Times,serif" font-size="14.00"> sessions at final &gt;= 5</text>
</a>
</g>
</g>
</g>
</svg>
